<?xml version="1.0" encoding="utf-8"?>
<svg viewBox="0 0 500 500" xmlns="http://www.w3.org/2000/svg">
  <circle cx="250" cy="250" r="250" style="fill: rgb(92, 49, 190);" transform="matrix(1, 0, 0, 1, 0, -2.842170943040401e-14)"/>
  <g style="" transform="matrix(0.28658899664878845, 0, 0, -0.2732900083065033, 28.57589954995956, 679.5510965518815)">
    <path d="M385 2273 c21 -237 106 -471 239 -656 l56 -78 -25 -87 c-13 -48 -31 -125 -40 -171 -17 -95 -37 -337 -34 -423 2 -58 2 -58 34 -58 l31 0 12 213 c11 211 22 281 63 430 l22 77 173 0 c115 0 174 -4 174 -10 0 -15 -29 -71 -49 -94 -9 -10 -40 -34 -68 -52 -29 -19 -53 -38 -53 -43 0 -6 16 -36 35 -68 51 -84 85 -199 98 -335 l11 -118 32 0 c31 0 32 1 28 37 -2 21 -5 70 -8 108 -6 89 -34 192 -76 284 l-34 73 47 40 c65 55 98 114 104 188 l6 60 -210 0 -210 0 -7 49 c-11 81 -54 234 -92 325 -41 98 -130 245 -195 323 -66 78 -72 77 -64 -14z m156 -246 c22 -43 48 -100 59 -128 25 -63 62 -200 56 -206 -8 -8 -84 130 -117 212 -29 74 -69 207 -69 230 1 18 31 -28 71 -108z" style="stroke-linecap: round; fill: rgb(255, 255, 255); paint-order: fill; stroke: rgb(255, 255, 255); stroke-width: 57.1552px;"/>
    <path d="M871 2317 c-75 -122 -115 -294 -108 -467 4 -108 19 -180 37 -180 4 0 22 23 40 50 60 94 100 263 100 423 0 104 -17 198 -37 204 -6 2 -20 -11 -32 -30z m-1 -270 c-21 -170 -58 -267 -46 -122 7 77 32 210 44 230 13 21 14 -22 2 -108z" style="stroke-linecap: round; fill: rgb(255, 255, 255); paint-order: fill; stroke: rgb(255, 255, 255); stroke-width: 57.1552px;"/>
    <path d="M 434 949 C 393 928 379 870 406 832 C 430 797 465 788 504 804 C 559 827 572 901 528 938 C 506 955 458 961 434 949 Z M 495 880 C 495 862 489 854 472 852 C 445 848 432 874 450 896 C 469 918 495 909 495 880 Z" style="stroke-linecap: round; fill: rgb(255, 255, 255); paint-order: fill; stroke: rgb(255, 255, 255); stroke-width: 57.1552px;"/>
  </g>
</svg>